# xmcd CD database file
#
# Track frame offsets:
#	150
#	27192
#	53820
#	75660
#	95223
#	118970
#	141704
#	165057
#	198074
#	221624
#
# Disc length: 3435 seconds
#
# Revision: 1
# Processed by: cddbd v1.5.2PL0 Copyright (c) Steve Scherf et al.
# Submitted via: CDex 1.70beta2
#
DISCID=890d690a
DTITLE=quasimode - Freedom quasimode JAZZ Collection
DYEAR=2007
DGENRE=Jazz
TTITLE0=Catch The Fact (Full Length Version) - quasimode
TTITLE1=Starlite (Sicania Soul Live Mix) - Sicania Soul
TTITLE2=Summer Goddess - SOIL＆“PIMP”SESSIONS
TTITLE3=Banks Of Nile/ Two Banks Of Four
TTITLE4=Pretend Paradise/ PTH Projects feat.Liane Carroll
TTITLE5=Virtual Bossa/ Guido Guidoboni Quintet
TTITLE6=Guarapiranga/ Toco
TTITLE7=Tonight The Nite (quasimode remix)/ Markus Enochson
TTITLE8=Hight at Noon/ Timo Lassy
TTITLE9=PATHWAYS "Jazztronik Theme" (Sleep Walker Remix)/ Jazztronik
EXTD=YEAR: 2007
EXTT0=
EXTT1=
EXTT2=
EXTT3=
EXTT4=
EXTT5=
EXTT6=
EXTT7=
EXTT8=
EXTT9=
PLAYORDER=
